<svg width="36" height="36" viewBox="0 0 36 36" fill="none" xmlns="http://www.w3.org/2000/svg">
<path id="&#230;&#165;&#189;" d="M1.02748 21.853V25.8403H35.0106V21.853H1.02748ZM15.6025 18.7859V36H20.2452V18.7859H15.6025ZM14.1945 23.5783C11.2643 27.1054 5.47992 30.2875 0 31.8594C0.989429 32.7796 2.35941 34.5431 3.0444 35.6933C8.67653 33.6613 14.4609 29.7508 17.9239 25.2268L14.1945 23.5783ZM21.6152 23.6933L17.8478 25.4569C21.463 29.7125 27.3235 33.4696 32.9556 35.3866C33.6025 34.2364 35.0106 32.4345 36 31.5527C30.444 30.0575 24.6216 27.0288 21.6152 23.6933ZM14.7653 13.1885H21.0063V15.7955H14.7653V13.1885ZM14.7653 7.36102H21.0063V9.92971H14.7653V7.36102ZM10.5412 3.83386V19.3227H25.4588V3.83386H10.5412ZM15.7928 0C15.6025 1.57189 15.1078 3.64217 14.6512 5.21406L18.685 5.94249C19.3319 4.60064 20.1311 2.64537 20.9302 0.575079L15.7928 0ZM0.761099 5.0607C3.00634 6.7476 5.59408 9.23962 6.69767 11.0415L10.0465 8.08945C8.82875 6.28754 6.12685 3.98722 3.88161 2.41533L0.761099 5.0607ZM24.4693 14.2236C27.3996 15.7955 31.2812 18.2492 33.1078 19.8978L35.9239 16.4473C33.945 14.8371 29.9493 12.5751 27.1332 11.1565L24.4693 14.2236ZM30.9006 1.91693C29.4545 3.91054 26.9049 6.51757 25.0402 8.08945L28.4271 10.3514C30.3679 8.81789 32.8414 6.51757 34.8584 4.29393L30.9006 1.91693ZM0.0761099 16.2556L2.35941 20.0511C4.79493 18.6326 7.76321 16.8307 10.4271 15.1821L9.17125 11.5016C5.82241 13.3035 2.39746 15.1438 0.0761099 16.2556Z" fill="#F9FAFF"/>
</svg>
